<?xml version="1.0" standalone="no"?>
<!DOCTYPE svg PUBLIC "-//W3C//DTD SVG 20010904//EN"
 "http://www.w3.org/TR/2001/REC-SVG-20010904/DTD/svg10.dtd">
<svg version="1.0" xmlns="http://www.w3.org/2000/svg"
 width="512.000000pt" height="512.000000pt" viewBox="0 0 512.000000 512.000000"
 preserveAspectRatio="xMidYMid meet">

<g transform="translate(0.000000,512.000000) scale(0.100000,-0.100000)"
fill="#000000" stroke="none">
<path d="M1865 4021 c-47 -22 -77 -53 -390 -401 -131 -146 -254 -282 -274
-302 l-35 -38 266 0 267 0 201 223 c122 133 210 240 222 266 71 157 -101 325
-257 252z"/>
<path d="M3089 4017 c-91 -49 -132 -158 -91 -248 12 -26 100 -133 222 -266
l201 -223 267 0 266 0 -35 38 c-20 20 -162 177 -316 347 -154 171 -289 318
-299 327 -57 51 -147 61 -215 25z"/>
<path d="M800 3107 c-19 -6 -58 -34 -85 -62 -71 -70 -91 -145 -63 -239 16 -55
99 -138 154 -154 32 -9 439 -12 1756 -12 1936 0 1773 -7 1851 80 90 100 90
220 0 320 -78 87 86 80 -1857 79 -1224 -1 -1731 -4 -1756 -12z"/>
<path d="M980 2472 c0 -18 341 -1265 351 -1285 51 -98 143 -175 248 -208 60
-18 99 -19 981 -19 873 0 921 1 979 19 124 39 217 125 260 241 16 42 304 1098
337 1233 l6 27 -1581 0 c-870 0 -1581 -3 -1581 -8z m830 -290 c19 -15 33 -73
106 -437 46 -231 84 -428 84 -438 0 -28 -45 -67 -78 -67 -67 0 -67 -1 -158
455 -46 231 -84 428 -84 438 0 10 11 29 25 42 29 30 73 33 105 7z m805 -7 l25
-24 0 -431 0 -431 -25 -24 c-15 -16 -36 -25 -55 -25 -19 0 -40 9 -55 25 l-25
24 0 431 0 431 25 24 c15 16 36 25 55 25 19 0 40 -9 55 -25z m800 0 c14 -13
25 -32 25 -42 0 -10 -38 -207 -84 -438 -91 -456 -91 -455 -158 -455 -33 0 -78
39 -78 67 0 10 38 207 84 438 73 364 87 422 106 437 32 26 76 23 105 -7z"/>
</g>
</svg>
